<svg version="1.2" xmlns="http://www.w3.org/2000/svg" viewBox="0 0 168 168" width="512" height="512">
	<title>disabled-svgrepo-com(1)</title>
	<style>
		.s0 { fill: #ff2600 } 
	</style>
	<path class="s0" d="m0 83.9c0 46.2 37.6 83.8 83.9 83.8 46.2 0 83.8-37.6 83.8-83.8 0-46.3-37.6-83.9-83.8-83.9-46.3 0-83.9 37.6-83.9 83.9zm83.9 68.9c-38 0-68.9-30.9-68.9-68.9 0-16.3 5.7-31.3 15.2-43.1l96.8 96.8c-11.9 9.5-26.8 15.2-43.1 15.2zm68.9-68.9c-0.1 16.3-5.7 31.2-15.2 43.1l-96.8-96.8c11.8-9.5 26.8-15.2 43.1-15.2 38 0 68.8 30.9 68.8 68.9z"/>
</svg>