<svg version="1.2" xmlns="http://www.w3.org/2000/svg" viewBox="0 0 512 512" width="512" height="512">
	<title>wifi-signal-svgrepo-com(3)</title>
	<style>
		.s0 { fill: #00f900 } 
	</style>
	<g id="SVGRepo_bgCarrier">
	</g>
	<g id="SVGRepo_tracerCarrier">
	</g>
	<g id="SVGRepo_iconCarrier">
		<g>
			<path class="s0" d="m69.8 512c-38.5 0-69.8-31.3-69.8-69.8 0-38.5 31.3-69.8 69.8-69.8 38.5 0 69.8 31.3 69.8 69.8 0 38.5-31.3 69.8-69.8 69.8z"/>
			<path class="s0" d="m290.9 477.1c-19.3 0-34.9-15.6-34.9-34.9 0-102.7-83.5-186.2-186.2-186.2-19.3 0-34.9-15.6-34.9-34.9 0-19.3 15.6-34.9 34.9-34.9 68.4 0 132.7 26.6 181 75 48.4 48.3 75 112.6 75 181 0 19.3-15.6 34.9-34.9 34.9z"/>
			<path class="s0" d="m477.1 477.1c-19.3 0-34.9-15.6-34.9-34.9 0-205.3-167.1-372.4-372.4-372.4-19.3 0-34.9-15.6-34.9-34.9 0-19.3 15.6-34.9 34.9-34.9 59.7 0 117.6 11.7 172.1 34.8 52.7 22.2 100 54.1 140.6 94.7 40.6 40.6 72.5 87.9 94.7 140.6 23.1 54.5 34.8 112.4 34.8 172.1 0 19.3-15.6 34.9-34.9 34.9z"/>
		</g>
	</g>
</svg>