<svg version="1.2" xmlns="http://www.w3.org/2000/svg" viewBox="0 0 512 512" width="512" height="512">
	<title>wifi-signal-svgrepo-com</title>
	<style>
		.s0 { fill: #ffd24d } 
	</style>
	<g>
		<path class="s0" d="m69.8 512c-38.5 0-69.8-31.3-69.8-69.8 0-38.5 31.3-69.8 69.8-69.8 38.5 0 69.8 31.3 69.8 69.8 0 38.5-31.3 69.8-69.8 69.8z"/>
		<path class="s0" d="m290.9 477.1c-19.3 0-34.9-15.6-34.9-34.9 0-102.7-83.5-186.2-186.2-186.2-19.3 0-34.9-15.6-34.9-34.9 0-19.3 15.6-34.9 34.9-34.9 68.4 0 132.7 26.6 181 75 48.4 48.3 75 112.6 75 181 0 19.3-15.6 34.9-34.9 34.9z"/>
	</g>
</svg>